<?xml version="1.0" encoding="UTF-8" standalone="no"?>
<!-- Created with Inkscape (http://www.inkscape.org/) -->

<svg
   id="svg5"
   version="1.1"
   viewBox="0 0 210.47895 210.47895"
   height="210.47894mm"
   width="210.47894mm"
   sodipodi:docname="rotatelbackgroundnoblueglobe.svg"
   inkscape:version="1.2.2 (732a01da63, 2022-12-09)"
   xml:space="preserve"
   inkscape:export-filename="rotatellogosmall.png"
   inkscape:export-xdpi="24.135431"
   inkscape:export-ydpi="24.135431"
   xmlns:inkscape="http://www.inkscape.org/namespaces/inkscape"
   xmlns:sodipodi="http://sodipodi.sourceforge.net/DTD/sodipodi-0.dtd"
   xmlns="http://www.w3.org/2000/svg"
   xmlns:svg="http://www.w3.org/2000/svg"><sodipodi:namedview
     id="namedview7"
     pagecolor="#505050"
     bordercolor="#ffffff"
     borderopacity="1"
     inkscape:showpageshadow="0"
     inkscape:pageopacity="0"
     inkscape:pagecheckerboard="1"
     inkscape:deskcolor="#505050"
     inkscape:document-units="mm"
     showgrid="false"
     inkscape:zoom="0.79137312"
     inkscape:cx="-59.390443"
     inkscape:cy="248.93441"
     inkscape:window-width="1920"
     inkscape:window-height="1017"
     inkscape:window-x="-8"
     inkscape:window-y="-1"
     inkscape:window-maximized="1"
     inkscape:current-layer="layer1" /><defs
     id="defs2"><linearGradient
       id="linearGradient21290"
       inkscape:swatch="solid"><stop
         style="stop-color:#000000;stop-opacity:1;"
         offset="0"
         id="stop21288" /></linearGradient></defs><g
     inkscape:label="Layer 1"
     inkscape:groupmode="layer"
     id="layer1"
     transform="translate(-6.4738083,-48.381744)"
     style="display:inline"><circle
       style="fill:#1a1a1a;fill-opacity:1;stroke:none;stroke-width:0.0899999;stroke-dasharray:none;stroke-opacity:1"
       id="path55988"
       cx="111.71328"
       cy="153.62122"
       r="105.23947" /><path
       sodipodi:type="star"
       style="fill:#e4e4e4;fill-opacity:1;stroke:none;stroke-width:0.264583;stroke-opacity:1"
       id="path4983"
       inkscape:flatsided="true"
       sodipodi:sides="3"
       sodipodi:cx="162.16129"
       sodipodi:cy="124.90322"
       sodipodi:r1="41.110123"
       sodipodi:r2="19.378548"
       sodipodi:arg1="-0.43238624"
       sodipodi:arg2="0.61481136"
       inkscape:rounded="0.07"
       inkscape:randomized="0"
       d="m 199.48798,107.67649 c 2.08863,4.52562 -36.10764,58.61996 -41.07126,58.16596 -4.96361,-0.454 -32.71255,-60.58011 -29.83757,-64.65173 2.87499,-4.071615 68.8202,1.96015 70.90883,6.48577 z"
       inkscape:transform-center-x="1.6709405"
       inkscape:transform-center-y="-1.2345525"
       transform="matrix(-0.07319626,0.11884747,-0.44717709,-0.23228476,242.05316,223.8781)" /><circle
       id="path3225"
       style="fill:#000000;stroke:none;stroke-width:0.265667"
       cx="30.44722"
       cy="105.8187"
       r="0.047457825"
       transform="rotate(-20.55426)" /><circle
       style="fill:#ff2df2;fill-opacity:1;stroke:none;stroke-width:0.542413"
       cx="-29.103678"
       cy="-272.02155"
       r="16.731239"
       transform="rotate(152.36526)"
       id="circle4773" /><circle
       style="fill:#b12dff;fill-opacity:1;stroke:none;stroke-width:0.542413"
       cx="-117.10083"
       cy="-234.99628"
       r="16.731241"
       transform="rotate(-179.03568)"
       id="circle4775" /><circle
       style="fill:#7e2dff;fill-opacity:1;stroke:none;stroke-width:0.542416"
       cx="-173.90207"
       cy="-164.04616"
       r="16.731331"
       transform="rotate(-151.4543)"
       id="circle4777" /><circle
       style="fill:#2d98ff;fill-opacity:1;stroke:none;stroke-width:0.542411"
       cx="-191.81009"
       cy="-73.747398"
       r="16.731174"
       transform="rotate(-123.55076)"
       id="circle4779" /><circle
       style="fill:#2dffae;fill-opacity:1;stroke:none;stroke-width:0.542414"
       cx="-165.82782"
       cy="7.9549837"
       r="16.731249"
       transform="rotate(-97.84752)"
       id="circle4781" /><circle
       style="fill:#9dff2d;fill-opacity:1;stroke:none;stroke-width:0.542413"
       cx="-103.69523"
       cy="75.950508"
       r="16.731222"
       transform="rotate(-69.809356)"
       id="circle4783" /><circle
       style="fill:#ffc72d;fill-opacity:1;stroke:none;stroke-width:0.542414"
       cx="-16.740108"
       cy="106.55698"
       r="16.731266"
       transform="rotate(-41.657139)"
       id="circle4785" /><circle
       style="fill:#ff8b2d;fill-opacity:1;stroke:none;stroke-width:0.542413"
       cx="74.340065"
       cy="92.160248"
       r="16.731241"
       transform="rotate(-13.473723)"
       id="circle4787" /><circle
       style="fill:#ff602d;fill-opacity:1;stroke:none;stroke-width:0.542413"
       cx="147.63428"
       cy="36.535507"
       r="16.731243"
       transform="rotate(14.547879)"
       id="circle4789" /><circle
       style="fill:#ff3f2d;fill-opacity:1;stroke:none;stroke-width:0.542414"
       cx="185.99536"
       cy="-47.828773"
       r="16.731268"
       transform="rotate(42.753404)"
       id="circle4791" /><path
       style="fill:none;fill-opacity:1;stroke:none;stroke-width:0.0903687;stroke-dasharray:none;stroke-opacity:1"
       d="m 169.17548,214.95266 18.52768,2.59669 -16.4191,-28.23794 z"
       id="path11064" /><path
       id="path3822"
       style="fill:none;fill-opacity:1;stroke:#e4e4e4;stroke-width:6.04629;stroke-miterlimit:4;stroke-dasharray:none;stroke-opacity:1"
       d="m 118.6401,93.578688 a 143.28487,100.7852 0 0 1 0,117.065892 M 68.093282,189.27884 a 78.601699,78.601699 0 0 1 91.298928,0 M 109.8645,93.015472 a 144.27785,101.48366 0 0 0 0,117.877158 m 3.57594,-117.814741 a 58.951273,58.951273 0 1 0 0.60465,0 z m 0.30232,0 V 210.98042 m 58.95128,-58.95127 H 54.791457 m 13.301825,-35.47069 a 78.601699,78.601699 0 0 0 91.298928,0 m 0,71.74841" /></g><path
     id="path55988-9"
     style="display:inline;fill:none;stroke:none;stroke-width:0.0917676;stroke-opacity:1"
     d="M 105.31721,210.52396 A 107.30651,107.30651 0 0 1 -1.9892893,103.21745 107.30651,107.30651 0 0 1 105.31721,-4.0890724 107.30651,107.30651 0 0 1 212.62374,103.21745 107.30651,107.30651 0 0 1 105.31721,210.52396 Z" /></svg>
