<?xml version="1.0" encoding="UTF-8" standalone="no"?>
<!-- Created with Inkscape (http://www.inkscape.org/) -->

<svg
   width="200.72107mm"
   height="54.997543mm"
   viewBox="0 0 200.72107 54.997543"
   version="1.1"
   id="svg5"
   xml:space="preserve"
   inkscape:version="1.2.2 (732a01da63, 2022-12-09)"
   sodipodi:docname="RotaTelBanner.svg"
   xmlns:inkscape="http://www.inkscape.org/namespaces/inkscape"
   xmlns:sodipodi="http://sodipodi.sourceforge.net/DTD/sodipodi-0.dtd"
   xmlns="http://www.w3.org/2000/svg"
   xmlns:svg="http://www.w3.org/2000/svg"><sodipodi:namedview
     id="namedview7"
     pagecolor="#505050"
     bordercolor="#ffffff"
     borderopacity="1"
     inkscape:showpageshadow="0"
     inkscape:pageopacity="0"
     inkscape:pagecheckerboard="1"
     inkscape:deskcolor="#505050"
     inkscape:document-units="mm"
     showgrid="false"
     inkscape:zoom="1.4912879"
     inkscape:cx="399.31928"
     inkscape:cy="141.48844"
     inkscape:window-width="1920"
     inkscape:window-height="1017"
     inkscape:window-x="1912"
     inkscape:window-y="-8"
     inkscape:window-maximized="1"
     inkscape:current-layer="layer1" /><defs
     id="defs2"><rect
       x="557.61035"
       y="111.9014"
       width="66.382187"
       height="102.41823"
       id="rect456" /><linearGradient
       id="linearGradient21290"
       inkscape:swatch="solid"><stop
         style="stop-color:#000000;stop-opacity:1;"
         offset="0"
         id="stop21288" /></linearGradient></defs><g
     inkscape:label="Layer 1"
     inkscape:groupmode="layer"
     id="layer1"
     transform="translate(-33.517448,-128.48007)"><text
       xml:space="preserve"
       style="font-size:31.0444px;font-family:COMPU;-inkscape-font-specification:COMPU;text-align:center;text-anchor:middle;fill:#cccccc;stroke-width:0.0899999"
       x="73.096771"
       y="110.70967"
       id="text236"><tspan
         sodipodi:role="line"
         id="tspan234"
         style="stroke-width:0.09"
         x="73.096771"
         y="110.70967" /></text><text
       xml:space="preserve"
       style="font-style:normal;font-variant:normal;font-weight:normal;font-stretch:normal;font-size:31.0444px;font-family:Calibri;-inkscape-font-specification:Calibri;text-align:center;text-anchor:middle;fill:#cccccc;stroke-width:0.0899999"
       x="129.16129"
       y="145.8387"
       id="text240"><tspan
         sodipodi:role="line"
         id="tspan238"
         style="stroke-width:0.09"
         x="129.16129"
         y="145.8387" /></text><path
       d="M 97.953705,143.38074 H 93.39299 v 6.77334 l -0.767646,0.76764 h -2.957691 l -0.767646,-0.76764 v -12.01139 l 0.767646,-0.76765 h 7.495829 l 0.767646,0.76765 v 3.02542 l 1.490135,1.46756 v 8.28605 h -1.467558 z m -1.512712,-4.51556 -4.51556,0.0226 v 3.00285 h 4.51556 z"
       style="font-size:22.5778px;font-family:Computerfont;-inkscape-font-specification:Computerfont;text-align:center;text-anchor:middle;fill:#ff3f2d;stroke-width:0.09;fill-opacity:1"
       id="path620" /><path
       d="m 101.83708,150.92172 -0.76764,-0.76764 v -9.00855 l 0.76764,-0.76764 h 7.47325 l 0.76765,0.76764 v 9.00855 l -0.76765,0.76764 z m 6.75076,-9.03112 h -4.49298 v 2.28036 l 1.46756,1.46756 v 3.77049 h 3.02542 z"
       style="font-size:22.5778px;font-family:Computerfont;-inkscape-font-specification:Computerfont;text-align:center;text-anchor:middle;fill:#ff602d;stroke-width:0.09;fill-opacity:1"
       id="path622" /><path
       d="m 113.55496,150.92172 -0.76765,-0.76764 v -8.26348 h -1.53529 v -1.51271 h 1.53529 v -3.00285 h 1.51271 v 3.00285 h 3.00285 v 1.51271 h -1.51271 v 2.25778 l 1.51271,1.51271 -0.0226,4.49299 -0.76764,0.76764 z"
       style="font-size:22.5778px;font-family:Computerfont;-inkscape-font-specification:Computerfont;text-align:center;text-anchor:middle;fill:#ffc72d;fill-opacity:1;stroke-width:0.09"
       id="path624" /><path
       d="m 124.64064,146.40616 h -3.02543 v 3.00285 h 3.02543 z m -5.26063,4.51556 -0.76764,-0.76764 v -4.49299 l 0.76764,-0.76764 h 5.26063 v -3.00285 h -4.53814 v 1.49014 h -1.49013 v -2.25778 l 0.74506,-0.74507 h 6.02828 l 0.74506,0.74507 v 3.048 l 1.49014,1.49013 v 4.49299 l -0.76765,0.76764 z"
       style="font-size:22.5778px;font-family:Computerfont;-inkscape-font-specification:Computerfont;text-align:center;text-anchor:middle;fill:#9dff2d;stroke-width:0.09;fill-opacity:1"
       id="path626" /><path
       d="m 137.91639,138.86518 h -2.98027 v 2.28035 l 1.49013,1.49014 v 7.51841 l -0.76764,0.76764 h -2.9577 l -0.76764,-0.76764 v -11.2889 h -3.048 v -1.49014 h 9.03112 z"
       style="font-size:22.5778px;font-family:Computerfont;-inkscape-font-specification:Computerfont;text-align:center;text-anchor:middle;fill:#2d98ff;stroke-width:0.09;fill-opacity:1"
       id="path628" /><path
       d="m 146.87977,144.89345 v -3.00285 h -4.51556 v 3.00285 z m -3.02542,1.51271 v 3.00285 h 3.02542 v -1.51271 h 1.51272 v 2.25778 l -0.76765,0.76764 h -7.49583 l -0.76764,-0.76764 v -9.03112 l 0.74506,-0.74507 h 7.51841 l 0.74507,0.74507 v 4.53813 l -0.74507,0.74507 z"
       style="font-size:22.5778px;font-family:Computerfont;-inkscape-font-specification:Computerfont;text-align:center;text-anchor:middle;fill:#7e2dff;stroke-width:0.09;fill-opacity:1"
       id="path630" /><path
       d="m 150.67284,150.92172 -0.76765,-0.76764 v -12.01139 l 0.76765,-0.76765 h 1.46755 l 0.76765,0.76765 v 6.00569 l 1.49013,1.49014 v 4.51556 l -0.76764,0.76764 z"
       style="font-size:22.5778px;font-family:Computerfont;-inkscape-font-specification:Computerfont;text-align:center;text-anchor:middle;fill:#b12dff;stroke-width:0.09;fill-opacity:1"
       id="path632" /><g
       id="g452"
       transform="matrix(0.25626376,0,0,0.25626376,34.027231,129.52795)"><g
         inkscape:label="Layer 1"
         id="layer1-7"
         transform="translate(-6.4738083,-48.381744)"
         style="display:inline"><circle
           style="fill:#1a1a1a;fill-opacity:1;stroke:none;stroke-width:0.0899999;stroke-dasharray:none;stroke-opacity:1"
           id="path55988"
           cx="111.71328"
           cy="153.62122"
           r="105.23947" /><path
           sodipodi:type="star"
           style="fill:#e4e4e4;fill-opacity:1;stroke:none;stroke-width:0.264583;stroke-opacity:1"
           id="path4983"
           inkscape:flatsided="true"
           sodipodi:sides="3"
           sodipodi:cx="162.16129"
           sodipodi:cy="124.90322"
           sodipodi:r1="41.110123"
           sodipodi:r2="19.378548"
           sodipodi:arg1="-0.43238624"
           sodipodi:arg2="0.61481136"
           inkscape:rounded="0.07"
           inkscape:randomized="0"
           d="m 199.48798,107.67649 c 2.08863,4.52562 -36.10764,58.61996 -41.07126,58.16596 -4.96361,-0.454 -32.71255,-60.58011 -29.83757,-64.65173 2.87499,-4.071615 68.8202,1.96015 70.90883,6.48577 z"
           inkscape:transform-center-x="1.6709405"
           inkscape:transform-center-y="-1.2345525"
           transform="matrix(-0.07319626,0.11884747,-0.44717709,-0.23228476,242.05316,223.8781)" /><circle
           id="path3225"
           style="fill:#000000;stroke:none;stroke-width:0.265667"
           cx="30.44722"
           cy="105.8187"
           r="0.047457825"
           transform="rotate(-20.55426)" /><circle
           style="fill:#ff2df2;fill-opacity:1;stroke:none;stroke-width:0.542413"
           cx="-29.103678"
           cy="-272.02155"
           r="16.731239"
           transform="rotate(152.36526)"
           id="circle4773" /><circle
           style="fill:#b12dff;fill-opacity:1;stroke:none;stroke-width:0.542413"
           cx="-117.10083"
           cy="-234.99628"
           r="16.731241"
           transform="rotate(-179.03568)"
           id="circle4775" /><circle
           style="fill:#7e2dff;fill-opacity:1;stroke:none;stroke-width:0.542416"
           cx="-173.90207"
           cy="-164.04616"
           r="16.731331"
           transform="rotate(-151.4543)"
           id="circle4777" /><circle
           style="fill:#2d98ff;fill-opacity:1;stroke:none;stroke-width:0.542411"
           cx="-191.81009"
           cy="-73.747398"
           r="16.731174"
           transform="rotate(-123.55076)"
           id="circle4779" /><circle
           style="fill:#2dffae;fill-opacity:1;stroke:none;stroke-width:0.542414"
           cx="-165.82782"
           cy="7.9549837"
           r="16.731249"
           transform="rotate(-97.84752)"
           id="circle4781" /><circle
           style="fill:#9dff2d;fill-opacity:1;stroke:none;stroke-width:0.542413"
           cx="-103.69523"
           cy="75.950508"
           r="16.731222"
           transform="rotate(-69.809356)"
           id="circle4783" /><circle
           style="fill:#ffc72d;fill-opacity:1;stroke:none;stroke-width:0.542414"
           cx="-16.740108"
           cy="106.55698"
           r="16.731266"
           transform="rotate(-41.657139)"
           id="circle4785" /><circle
           style="fill:#ff8b2d;fill-opacity:1;stroke:none;stroke-width:0.542413"
           cx="74.340065"
           cy="92.160248"
           r="16.731241"
           transform="rotate(-13.473723)"
           id="circle4787" /><circle
           style="fill:#ff602d;fill-opacity:1;stroke:none;stroke-width:0.542413"
           cx="147.63428"
           cy="36.535507"
           r="16.731243"
           transform="rotate(14.547879)"
           id="circle4789" /><circle
           style="fill:#ff3f2d;fill-opacity:1;stroke:none;stroke-width:0.542414"
           cx="185.99536"
           cy="-47.828773"
           r="16.731268"
           transform="rotate(42.753404)"
           id="circle4791" /><path
           style="fill:none;fill-opacity:1;stroke:none;stroke-width:0.0903687;stroke-dasharray:none;stroke-opacity:1"
           d="m 169.17548,214.95266 18.52768,2.59669 -16.4191,-28.23794 z"
           id="path11064" /><path
           id="path3822-8"
           style="fill:none;fill-opacity:1;stroke:#2272d7;stroke-width:6.09815;stroke-miterlimit:4;stroke-dasharray:none;stroke-opacity:1"
           d="m 117.35753,94.882385 a 144.51382,101.64963 0 0 1 0,118.069955 M 66.377179,191.40335 a 79.275866,79.275866 0 0 1 92.081991,0 m -49.9525,-97.089015 a 145.51532,102.35409 0 0 0 0,118.888185 m 3.60661,-118.825235 a 59.456898,59.456898 0 1 0 0.60983,0 z m 0.30491,0 V 213.29106 m 59.4569,-59.45689 H 52.961264 m 13.415915,-35.77491 a 79.275866,79.275866 0 0 0 92.081991,0 m 0,72.36378" /><path
           id="path3822"
           style="fill:none;fill-opacity:1;stroke:#e4e4e4;stroke-width:6.04629;stroke-miterlimit:4;stroke-dasharray:none;stroke-opacity:1"
           d="m 118.6401,93.667944 a 143.28487,100.7852 0 0 1 0,117.065886 M 68.093282,189.36809 a 78.601699,78.601699 0 0 1 91.298928,0 M 109.8645,93.104728 a 144.27785,101.48366 0 0 0 0,117.877152 m 3.57594,-117.814735 a 58.951273,58.951273 0 1 0 0.60465,0 z m 0.30232,0 V 211.06967 M 172.69404,152.1184 H 54.791457 m 13.301825,-35.47068 a 78.601699,78.601699 0 0 0 91.298928,0 m 0,71.7484" /></g><path
         id="path55988-9"
         style="display:inline;fill:none;stroke:none;stroke-width:0.0917676;stroke-opacity:1"
         d="M 105.31721,210.52396 A 107.30651,107.30651 0 0 1 -1.9892893,103.21745 107.30651,107.30651 0 0 1 105.31721,-4.0890724 107.30651,107.30651 0 0 1 212.62374,103.21745 107.30651,107.30651 0 0 1 105.31721,210.52396 Z" /></g><text
       xml:space="preserve"
       transform="scale(0.26458333)"
       id="text454"
       style="font-style:normal;font-variant:normal;font-weight:normal;font-stretch:normal;font-size:85.3333px;font-family:Computerfont;-inkscape-font-specification:Computerfont;text-align:center;white-space:pre;shape-inside:url(#rect456);display:inline;fill:#cccccc;stroke-width:0.340157" /><g
       aria-label="Communications"
       id="text570"
       style="font-size:22.5778px;font-family:Computerfont;-inkscape-font-specification:Computerfont;text-align:center;text-anchor:middle;fill:#e4e4e4;stroke-width:0.0899999;fill-opacity:1"><path
         d="m 91.953266,154.02254 v 2.28036 l 1.490135,1.51271 v 6.75076 h 4.538138 v -1.51271 h 1.490134 v 2.25778 l -0.767645,0.76765 h -8.985965 l -0.767645,-0.76765 v -12.01139 l 0.767645,-0.76765 h 9.008543 l 0.767645,0.76765 v 2.2352 h -1.512712 v -1.51271 z"
         style="stroke-width:0.09;fill:#e4e4e4;fill-opacity:1"
         id="path635" /><path
         d="m 102.15841,166.07909 -0.76764,-0.76765 v -9.00854 l 0.76764,-0.76765 h 7.47325 l 0.76765,0.76765 v 9.00854 l -0.76765,0.76765 z m 6.75076,-9.03112 h -4.49298 v 2.28035 l 1.46756,1.46756 v 3.77049 h 3.02542 z"
         style="stroke-width:0.09;fill:#e4e4e4;fill-opacity:1"
         id="path637" /><path
         d="m 112.49904,166.07909 -0.76764,-0.76765 v -9.00854 l 0.76764,-0.76765 h 13.50153 l 0.76764,0.76765 v 9.77619 h -1.49013 v -9.03112 h -4.51556 v 2.25778 l 1.49013,1.49013 v 4.51556 l -0.76764,0.76765 h -1.44498 l -0.76765,-0.76765 -0.0226,-8.26347 h -4.51556 v 2.25778 l 1.49014,1.49013 v 4.51556 l -0.76765,0.76765 z"
         style="stroke-width:0.09;fill:#e4e4e4;fill-opacity:1"
         id="path639" /><path
         d="m 129.27435,166.07909 -0.76765,-0.76765 v -9.00854 l 0.76765,-0.76765 h 13.50152 l 0.76765,0.76765 v 9.77619 h -1.49014 v -9.03112 h -4.51556 v 2.25778 l 1.49014,1.49013 v 4.51556 l -0.76765,0.76765 h -1.44498 l -0.76764,-0.76765 -0.0226,-8.26347 h -4.51556 v 2.25778 l 1.49013,1.49013 v 4.51556 l -0.76764,0.76765 z"
         style="stroke-width:0.09;fill:#e4e4e4;fill-opacity:1"
         id="path641" /><path
         d="m 153.77126,166.07909 h -7.49583 l -0.76764,-0.76765 v -9.00854 l 0.76764,-0.76765 h 1.46756 l 0.76764,0.76765 v 3.00285 l 1.51272,1.51271 v 3.74791 h 3.00284 v -9.03112 h 1.51272 v 9.77619 z"
         style="stroke-width:0.09;fill:#e4e4e4;fill-opacity:1"
         id="path643" /><path
         d="m 163.47973,157.04797 h -4.51556 v 2.28035 l 1.49013,1.49014 v 4.49298 l -0.76764,0.76765 h -2.9577 l -0.76764,-0.76765 v -9.00854 l 0.76764,-0.76765 h 7.47326 l 0.76764,0.76765 0.0226,9.77619 h -1.51271 z"
         style="stroke-width:0.09;fill:#e4e4e4;fill-opacity:1"
         id="path645" /><path
         d="m 168.3791,155.53525 v 3.7705 l 1.51272,1.51271 v 4.49298 l -0.76765,0.76765 h -1.46756 l -0.76764,-0.76765 v -9.77619 z m 0,-1.19662 h -1.49013 l -0.27093,-0.27093 v -1.03858 l 0.27093,-0.27094 h 1.49013 l 0.27094,0.27094 v 1.03858 z"
         style="stroke-width:0.09;fill:#e4e4e4;fill-opacity:1"
         id="path647" /><path
         d="m 180.3905,165.31144 -0.76765,0.76765 h -7.47325 l -0.76764,-0.76765 v -9.00854 l 0.76764,-0.76765 h 7.49583 l 0.76765,0.76765 v 2.2352 h -1.51272 v -1.49013 h -4.51556 v 2.25778 l 1.49014,1.49013 v 3.77049 h 3.048 v -1.51271 h 1.46756 z"
         style="stroke-width:0.09;fill:#e4e4e4;fill-opacity:1"
         id="path649" /><path
         d="m 187.88631,161.56353 h -3.02542 v 3.00284 h 3.02542 z m -5.26063,4.51556 -0.76764,-0.76765 v -4.49298 l 0.76764,-0.76765 h 5.26063 v -3.00284 h -4.53814 v 1.49013 h -1.49013 v -2.25778 l 0.74507,-0.74507 h 6.02827 l 0.74507,0.74507 v 3.048 l 1.49013,1.49014 v 4.49298 l -0.76764,0.76765 z"
         style="stroke-width:0.09;fill:#e4e4e4;fill-opacity:1"
         id="path651" /><path
         d="m 194.32099,166.07909 -0.76765,-0.76765 v -8.26347 h -1.53529 v -1.51272 h 1.53529 v -3.00285 h 1.51272 v 3.00285 h 3.00284 v 1.51272 h -1.51271 v 2.25778 l 1.51271,1.51271 -0.0226,4.49298 -0.76765,0.76765 z"
         style="stroke-width:0.09;fill:#e4e4e4;fill-opacity:1"
         id="path653" /><path
         d="m 201.36524,155.53525 v 3.7705 l 1.51271,1.51271 v 4.49298 l -0.76764,0.76765 h -1.46756 l -0.76764,-0.76765 v -9.77619 z m 0,-1.19662 h -1.49013 l -0.27094,-0.27093 v -1.03858 l 0.27094,-0.27094 h 1.49013 l 0.27093,0.27094 v 1.03858 z"
         style="stroke-width:0.09;fill:#e4e4e4;fill-opacity:1"
         id="path655" /><path
         d="m 204.9777,166.07909 -0.76765,-0.76765 v -9.00854 l 0.76765,-0.76765 h 7.47325 l 0.76764,0.76765 v 9.00854 l -0.76764,0.76765 z m 6.75076,-9.03112 h -4.49298 v 2.28035 l 1.46755,1.46756 v 3.77049 h 3.02543 z"
         style="stroke-width:0.09;fill:#e4e4e4;fill-opacity:1"
         id="path657" /><path
         d="m 222.18197,157.04797 h -4.51556 v 2.28035 l 1.49014,1.49014 v 4.49298 l -0.76765,0.76765 h -2.95769 l -0.76764,-0.76765 v -9.00854 l 0.76764,-0.76765 h 7.47325 l 0.76765,0.76765 0.0226,9.77619 h -1.51272 z"
         style="stroke-width:0.09;fill:#e4e4e4;fill-opacity:1"
         id="path659" /><path
         d="m 234.23851,165.31144 -0.76764,0.76765 h -7.49583 l -0.76765,-0.76765 v -2.25778 h 1.51272 v 1.51271 h 2.98027 v -3.00284 h -3.72534 l -0.76765,-0.76765 v -4.49298 l 0.76765,-0.76765 h 7.49583 l 0.76764,0.76765 v 2.2352 h -1.49013 v -1.49013 h -4.51556 v 3.00284 h 5.23805 l 0.76764,0.76765 z"
         style="stroke-width:0.09;fill:#e4e4e4;fill-opacity:1"
         id="path661" /></g><g
       aria-label="Analog Spirit. Digital Reach."
       id="text580"
       style="font-size:7.76111px;font-family:Computerfont;-inkscape-font-specification:Computerfont;fill:#e4e4e4;stroke-width:0.0899999;fill-opacity:1"><path
         d="m 92.082701,169.34121 -1.000455,2.30029 h 1.076247 z m -0.511596,-1.03835 h 1.364257 l 0.428225,5.65788 h -1.110354 l -0.05305,-1.39836 h -1.515842 l -0.613916,1.39836 H 88.93733 Z"
         style="font-style:italic;font-weight:bold;font-family:monospace;-inkscape-font-specification:'monospace, Bold Italic';baseline-shift:baseline;stroke-width:0.09;fill:#e4e4e4;fill-opacity:1"
         id="path664" /><path
         d="m 98.214281,171.20191 -0.534334,2.75883 h -1.110354 l 0.504017,-2.58451 q 0.01895,-0.0985 0.02653,-0.19706 0.01137,-0.10232 0.01137,-0.20464 0,-0.2198 -0.109898,-0.33348 -0.109899,-0.11748 -0.318327,-0.11748 -0.310748,0 -0.534334,0.27285 -0.219797,0.27285 -0.318327,0.78066 l -0.458542,2.38366 h -1.110354 l 0.822344,-4.24436 h 1.110354 l -0.121267,0.63666 q 0.181901,-0.34865 0.500227,-0.54192 0.318327,-0.19706 0.701077,-0.19706 0.485069,0 0.746552,0.26528 0.261483,0.26148 0.261483,0.74276 0,0.11369 -0.01895,0.25769 -0.01516,0.14401 -0.04927,0.32212 z"
         style="font-style:italic;font-weight:bold;font-family:monospace;-inkscape-font-specification:'monospace, Bold Italic';baseline-shift:baseline;stroke-width:0.09;fill:#e4e4e4;fill-opacity:1"
         id="path666" /><path
         d="m 101.32555,171.95225 q -0.65182,0 -0.96635,0.19706 -0.31454,0.19706 -0.31454,0.61012 0,0.23875 0.15158,0.39412 0.15538,0.15538 0.39412,0.15538 0.44718,0 0.75034,-0.35244 0.30317,-0.35243 0.41307,-1.00424 z m 1.60679,-0.41307 -0.46612,2.42156 h -1.10278 l 0.0947,-0.4737 q -0.2539,0.2918 -0.5836,0.43959 -0.3259,0.14401 -0.74276,0.14401 -0.57223,0 -0.909504,-0.3297 -0.333485,-0.33348 -0.333485,-0.89813 0,-0.81477 0.587388,-1.24299 0.591181,-0.43202 1.701531,-0.43202 h 0.7314 l 0.0303,-0.18569 q 0.004,-0.0227 0.004,-0.0417 0.004,-0.0227 0.004,-0.0682 0,-0.21601 -0.19327,-0.32969 -0.19327,-0.11369 -0.56086,-0.11369 -0.31075,0 -0.70487,0.1099 -0.39033,0.10611 -0.837499,0.31832 l 0.178111,-0.9474 q 0.428228,-0.14779 0.807188,-0.2198 0.38275,-0.0758 0.7276,-0.0758 0.82235,0 1.24678,0.28801 0.42444,0.28801 0.42444,0.84508 0,0.1478 -0.0265,0.34865 -0.0265,0.20085 -0.0758,0.44338 z"
         style="font-style:italic;font-weight:bold;font-family:monospace;-inkscape-font-specification:'monospace, Bold Italic';baseline-shift:baseline;stroke-width:0.09;fill:#e4e4e4;fill-opacity:1"
         id="path668" /><path
         d="m 105.7518,172.57753 q -0.0152,0.0758 -0.0265,0.14022 -0.008,0.0606 -0.008,0.0796 0,0.17053 0.11747,0.24254 0.11748,0.0682 0.41307,0.0682 h 1.05351 l -0.17053,0.85266 h -1.12551 q -0.77687,0 -1.09899,-0.21222 -0.32211,-0.21222 -0.32211,-0.70487 0,-0.0872 0.0189,-0.21979 0.019,-0.13264 0.0531,-0.29938 l 0.76929,-3.6077 h -1.15962 l 0.16295,-0.85267 h 2.26619 z"
         style="font-style:italic;font-weight:bold;font-family:monospace;-inkscape-font-specification:'monospace, Bold Italic';baseline-shift:baseline;stroke-width:0.09;fill:#e4e4e4;fill-opacity:1"
         id="path670" /><path
         d="m 111.27705,171.36865 q 0,-0.41307 -0.17811,-0.63665 -0.17433,-0.22359 -0.49644,-0.22359 -0.46612,0 -0.78066,0.51539 -0.31454,0.51538 -0.31454,1.29225 0,0.4017 0.1819,0.63286 0.18569,0.22738 0.50023,0.22738 0.45854,0 0.77308,-0.51539 0.31454,-0.51917 0.31454,-1.29225 z m -2.88768,0.97772 q 0,-1.22025 0.62907,-1.97818 0.63287,-0.76171 1.64469,-0.76171 0.81477,0 1.27331,0.45855 0.45854,0.45475 0.45854,1.26572 0,1.22405 -0.63286,1.98197 -0.62908,0.75792 -1.6409,0.75792 -0.81477,0 -1.27331,-0.45475 -0.45854,-0.45855 -0.45854,-1.26952 z"
         style="font-style:italic;font-weight:bold;font-family:monospace;-inkscape-font-specification:'monospace, Bold Italic';baseline-shift:baseline;stroke-width:0.09;fill:#e4e4e4;fill-opacity:1"
         id="path672" /><path
         d="m 114.69906,173.0285 q 0.4358,0 0.75413,-0.50023 0.31833,-0.50402 0.31833,-1.21267 0,-0.37897 -0.15538,-0.58739 -0.15537,-0.21222 -0.42822,-0.21222 -0.43202,0 -0.75034,0.50402 -0.31833,0.50022 -0.31833,1.2013 0,0.38654 0.15159,0.59876 0.15158,0.20843 0.42822,0.20843 z m 1.76975,0.61391 q -0.20085,1.04972 -0.72382,1.48553 -0.52296,0.43959 -1.55753,0.43959 -0.37138,0 -0.71623,-0.0568 -0.34486,-0.0568 -0.67455,-0.16675 l 0.20464,-1.00424 q 0.28422,0.17053 0.59497,0.2539 0.31453,0.0872 0.64423,0.0872 0.4737,0 0.73897,-0.22358 0.26906,-0.2198 0.35622,-0.68971 l 0.10232,-0.50402 q -0.20464,0.31454 -0.50022,0.47749 -0.2918,0.15917 -0.65561,0.15917 -0.59496,0 -0.9474,-0.39412 -0.34864,-0.39791 -0.34864,-1.07246 0,-0.52676 0.15916,-1.06109 0.15917,-0.53433 0.43581,-0.94361 0.26527,-0.39033 0.64423,-0.61013 0.38275,-0.2198 0.78445,-0.2198 0.39412,0 0.64802,0.20843 0.25769,0.20843 0.33728,0.59876 l 0.13263,-0.68971 h 1.11036 z"
         style="font-style:italic;font-weight:bold;font-family:monospace;-inkscape-font-specification:'monospace, Bold Italic';baseline-shift:baseline;stroke-width:0.09;fill:#e4e4e4;fill-opacity:1"
         id="path674" /><path
         d="m 123.99117,171.44444 q -0.7276,-0.30317 -0.96256,-0.58739 -0.23495,-0.28422 -0.23495,-0.76171 0,-0.83371 0.61012,-1.36425 0.61392,-0.53055 1.58785,-0.53055 0.39033,0 0.75792,0.0796 0.37138,0.0758 0.71623,0.23117 l -0.216,1.08004 q -0.2577,-0.23496 -0.60255,-0.35244 -0.34486,-0.12127 -0.7655,-0.12127 -0.44718,0 -0.72761,0.21601 -0.28043,0.21222 -0.28043,0.54571 0,0.31832 0.69729,0.63286 l 0.0265,0.0114 0.43959,0.19327 q 0.55328,0.24632 0.80719,0.59497 0.25769,0.34485 0.25769,0.84887 0,0.87161 -0.61013,1.39078 -0.61012,0.51918 -1.64847,0.51918 -0.41686,0 -0.85266,-0.0985 -0.43202,-0.0985 -0.90193,-0.29938 l 0.22359,-1.15583 q 0.36759,0.30696 0.76929,0.46991 0.40169,0.15916 0.80718,0.15916 0.50402,0 0.79203,-0.21979 0.28801,-0.22359 0.28801,-0.60255 0,-0.23496 -0.13264,-0.40549 -0.13263,-0.17432 -0.39412,-0.28422 z"
         style="font-style:italic;font-weight:bold;font-family:monospace;-inkscape-font-specification:'monospace, Bold Italic';baseline-shift:baseline;stroke-width:0.09;fill:#e4e4e4;fill-opacity:1"
         id="path676" /><path
         d="m 128.18247,173.17629 -0.46612,2.39882 H 126.606 l 1.14067,-5.85873 h 1.11035 l -0.12506,0.63666 q 0.26907,-0.37139 0.57981,-0.55329 0.31075,-0.18569 0.66318,-0.18569 0.55708,0 0.87919,0.41686 0.32212,0.41307 0.32212,1.1293 0,0.48886 -0.11748,0.98151 -0.11748,0.49265 -0.32969,0.89435 -0.26149,0.48885 -0.65939,0.76171 -0.39791,0.27285 -0.8413,0.27285 -0.42443,0 -0.69728,-0.23496 -0.27286,-0.23495 -0.34865,-0.65939 z m 0.84508,-0.008 q 0.42065,0 0.72382,-0.53812 0.30696,-0.53813 0.30696,-1.29984 0,-0.38275 -0.15917,-0.59496 -0.15537,-0.21222 -0.4358,-0.21222 -0.43202,0 -0.75034,0.52675 -0.31454,0.52297 -0.31454,1.27331 0,0.39412 0.17053,0.6215 0.17053,0.22358 0.45854,0.22358 z"
         style="font-style:italic;font-weight:bold;font-family:monospace;-inkscape-font-specification:'monospace, Bold Italic';baseline-shift:baseline;stroke-width:0.09;fill:#e4e4e4;fill-opacity:1"
         id="path678" /><path
         d="m 132.58978,169.71638 h 2.19797 l -0.65939,3.3917 h 1.37942 l -0.16296,0.85266 h -3.87297 l 0.16295,-0.85266 h 1.38321 l 0.49643,-2.53904 h -1.08761 z m 1.48932,-2.06533 h 1.11035 l -0.2539,1.29604 h -1.11036 z"
         style="font-style:italic;font-weight:bold;font-family:monospace;-inkscape-font-specification:'monospace, Bold Italic';baseline-shift:baseline;stroke-width:0.09;fill:#e4e4e4;fill-opacity:1"
         id="path680" /><path
         d="m 140.54037,170.87221 q -0.1819,-0.16295 -0.40548,-0.23874 -0.22359,-0.0796 -0.50402,-0.0796 -0.62908,0 -0.97014,0.33349 -0.33728,0.33349 -0.48886,1.11793 l -0.37896,1.95544 h -1.11793 l 0.82992,-4.24436 h 1.11035 l -0.13263,0.65939 q 0.23495,-0.3638 0.61012,-0.56086 0.37517,-0.20085 0.82614,-0.20085 0.23495,0 0.44338,0.0568 0.21222,0.0568 0.37896,0.15916 z"
         style="font-style:italic;font-weight:bold;font-family:monospace;-inkscape-font-specification:'monospace, Bold Italic';baseline-shift:baseline;stroke-width:0.09;fill:#e4e4e4;fill-opacity:1"
         id="path682" /><path
         d="m 141.93495,169.71638 h 2.19797 l -0.65939,3.3917 h 1.37941 l -0.16295,0.85266 h -3.87298 l 0.16296,-0.85266 h 1.3832 l 0.49644,-2.53904 h -1.08762 z m 1.48931,-2.06533 h 1.11035 l -0.2539,1.29604 h -1.11035 z"
         style="font-style:italic;font-weight:bold;font-family:monospace;-inkscape-font-specification:'monospace, Bold Italic';baseline-shift:baseline;stroke-width:0.09;fill:#e4e4e4;fill-opacity:1"
         id="path684" /><path
         d="m 148.65012,168.51129 -0.23495,1.20509 h 1.45142 l -0.16296,0.85266 h -1.45142 l -0.39411,2.00849 q -0.0152,0.0758 -0.0227,0.13264 -0.008,0.0568 -0.008,0.0872 0,0.17053 0.11369,0.24254 0.11369,0.0682 0.41306,0.0682 h 0.85267 l -0.16296,0.85266 h -0.92845 q -0.77308,0 -1.09899,-0.20843 -0.32211,-0.21222 -0.32211,-0.70108 0,-0.0796 0.0152,-0.20842 0.0189,-0.12885 0.0531,-0.31833 l 0.38275,-1.95544 h -1.08762 l 0.16296,-0.85266 h 1.08761 l 0.23117,-1.20509 z"
         style="font-style:italic;font-weight:bold;font-family:monospace;-inkscape-font-specification:'monospace, Bold Italic';baseline-shift:baseline;stroke-width:0.09;fill:#e4e4e4;fill-opacity:1"
         id="path686" /><path
         d="m 151.69318,172.56995 h 1.26573 l -0.26528,1.39079 h -1.26572 z"
         style="font-style:italic;font-weight:bold;font-family:monospace;-inkscape-font-specification:'monospace, Bold Italic';baseline-shift:baseline;stroke-width:0.09;fill:#e4e4e4;fill-opacity:1"
         id="path688" /><path
         d="m 161.44004,169.31089 -0.70487,3.64181 h 0.3638 q 0.42444,0 0.71624,-0.16674 0.2918,-0.16674 0.45475,-0.50023 0.19706,-0.40169 0.31833,-0.95498 0.12505,-0.55707 0.12505,-1.03456 0,-0.50023 -0.23874,-0.74276 -0.23496,-0.24254 -0.72382,-0.24254 z m -0.9133,-1.00803 h 1.19373 q 1.08004,0 1.61437,0.46612 0.53433,0.46612 0.53433,1.40594 0,0.3297 -0.053,0.70487 -0.0493,0.37138 -0.15537,0.79961 -0.14022,0.57223 -0.33728,0.97014 -0.19706,0.3979 -0.46991,0.65939 -0.35622,0.34864 -0.85266,0.50022 -0.49644,0.15159 -1.32636,0.15159 h -1.25057 z"
         style="font-style:italic;font-weight:bold;font-family:monospace;-inkscape-font-specification:'monospace, Bold Italic';baseline-shift:baseline;stroke-width:0.09;fill:#e4e4e4;fill-opacity:1"
         id="path690" /><path
         d="m 165.29786,169.71638 h 2.19797 l -0.65939,3.3917 h 1.37941 l -0.16295,0.85266 h -3.87298 l 0.16296,-0.85266 h 1.3832 l 0.49644,-2.53904 h -1.08762 z m 1.48931,-2.06533 h 1.11036 l -0.25391,1.29604 h -1.11035 z"
         style="font-style:italic;font-weight:bold;font-family:monospace;-inkscape-font-specification:'monospace, Bold Italic';baseline-shift:baseline;stroke-width:0.09;fill:#e4e4e4;fill-opacity:1"
         id="path692" /><path
         d="m 170.77005,173.0285 q 0.4358,0 0.75413,-0.50023 0.31833,-0.50402 0.31833,-1.21267 0,-0.37897 -0.15538,-0.58739 -0.15537,-0.21222 -0.42822,-0.21222 -0.43202,0 -0.75034,0.50402 -0.31833,0.50022 -0.31833,1.2013 0,0.38654 0.15158,0.59876 0.15159,0.20843 0.42823,0.20843 z m 1.76974,0.61391 q -0.20085,1.04972 -0.72381,1.48553 -0.52297,0.43959 -1.55753,0.43959 -0.37138,0 -0.71623,-0.0568 -0.34486,-0.0568 -0.67455,-0.16675 l 0.20464,-1.00424 q 0.28422,0.17053 0.59496,0.2539 0.31454,0.0872 0.64424,0.0872 0.4737,0 0.73897,-0.22358 0.26906,-0.2198 0.35622,-0.68971 l 0.10232,-0.50402 q -0.20464,0.31454 -0.50023,0.47749 -0.2918,0.15917 -0.6556,0.15917 -0.59497,0 -0.9474,-0.39412 -0.34864,-0.39791 -0.34864,-1.07246 0,-0.52676 0.15916,-1.06109 0.15916,-0.53433 0.4358,-0.94361 0.26528,-0.39033 0.64424,-0.61013 0.38275,-0.2198 0.78445,-0.2198 0.39411,0 0.64802,0.20843 0.25769,0.20843 0.33727,0.59876 l 0.13264,-0.68971 h 1.11035 z"
         style="font-style:italic;font-weight:bold;font-family:monospace;-inkscape-font-specification:'monospace, Bold Italic';baseline-shift:baseline;stroke-width:0.09;fill:#e4e4e4;fill-opacity:1"
         id="path694" /><path
         d="m 174.64302,169.71638 h 2.19797 l -0.65939,3.3917 h 1.37941 l -0.16295,0.85266 h -3.87297 l 0.16295,-0.85266 h 1.3832 l 0.49644,-2.53904 h -1.08761 z m 1.48931,-2.06533 h 1.11036 l -0.25391,1.29604 h -1.11035 z"
         style="font-style:italic;font-weight:bold;font-family:monospace;-inkscape-font-specification:'monospace, Bold Italic';baseline-shift:baseline;stroke-width:0.09;fill:#e4e4e4;fill-opacity:1"
         id="path696" /><path
         d="m 181.3582,168.51129 -0.23496,1.20509 h 1.45142 l -0.16295,0.85266 h -1.45142 l -0.39412,2.00849 q -0.0152,0.0758 -0.0227,0.13264 -0.008,0.0568 -0.008,0.0872 0,0.17053 0.11368,0.24254 0.11369,0.0682 0.41307,0.0682 h 0.85266 l -0.16295,0.85266 h -0.92845 q -0.77308,0 -1.09899,-0.20843 -0.32212,-0.21222 -0.32212,-0.70108 0,-0.0796 0.0152,-0.20842 0.0189,-0.12885 0.0531,-0.31833 l 0.38275,-1.95544 h -1.08762 l 0.16295,-0.85266 h 1.08762 l 0.23117,-1.20509 z"
         style="font-style:italic;font-weight:bold;font-family:monospace;-inkscape-font-specification:'monospace, Bold Italic';baseline-shift:baseline;stroke-width:0.09;fill:#e4e4e4;fill-opacity:1"
         id="path698" /><path
         d="m 185.43203,171.95225 q -0.65182,0 -0.96635,0.19706 -0.31454,0.19706 -0.31454,0.61012 0,0.23875 0.15158,0.39412 0.15538,0.15538 0.39412,0.15538 0.44718,0 0.75035,-0.35244 0.30316,-0.35243 0.41306,-1.00424 z m 1.60679,-0.41307 -0.46612,2.42156 h -1.10278 l 0.0947,-0.4737 q -0.2539,0.2918 -0.5836,0.43959 -0.3259,0.14401 -0.74276,0.14401 -0.57223,0 -0.9095,-0.3297 -0.33349,-0.33348 -0.33349,-0.89813 0,-0.81477 0.58739,-1.24299 0.59118,-0.43202 1.70153,-0.43202 h 0.7314 l 0.0303,-0.18569 q 0.004,-0.0227 0.004,-0.0417 0.004,-0.0227 0.004,-0.0682 0,-0.21601 -0.19327,-0.32969 -0.19327,-0.11369 -0.56086,-0.11369 -0.31075,0 -0.70487,0.1099 -0.39033,0.10611 -0.8375,0.31832 l 0.17811,-0.9474 q 0.42823,-0.14779 0.80719,-0.2198 0.38275,-0.0758 0.7276,-0.0758 0.82235,0 1.24678,0.28801 0.42444,0.28801 0.42444,0.84508 0,0.1478 -0.0265,0.34865 -0.0265,0.20085 -0.0758,0.44338 z"
         style="font-style:italic;font-weight:bold;font-family:monospace;-inkscape-font-specification:'monospace, Bold Italic';baseline-shift:baseline;stroke-width:0.09;fill:#e4e4e4;fill-opacity:1"
         id="path700" /><path
         d="m 189.85828,172.57753 q -0.0152,0.0758 -0.0265,0.14022 -0.008,0.0606 -0.008,0.0796 0,0.17053 0.11748,0.24254 0.11748,0.0682 0.41307,0.0682 h 1.05351 l -0.17053,0.85266 h -1.12552 q -0.77687,0 -1.09898,-0.21222 -0.32212,-0.21222 -0.32212,-0.70487 0,-0.0872 0.0189,-0.21979 0.019,-0.13264 0.0531,-0.29938 l 0.76929,-3.6077 h -1.15962 l 0.16296,-0.85267 h 2.26618 z"
         style="font-style:italic;font-weight:bold;font-family:monospace;-inkscape-font-specification:'monospace, Bold Italic';baseline-shift:baseline;stroke-width:0.09;fill:#e4e4e4;fill-opacity:1"
         id="path702" /><path
         d="m 199.82115,171.28907 q 0.23117,0.0341 0.36002,0.17053 0.12884,0.13643 0.23116,0.46612 l 0.6215,2.03502 h -1.14067 l -0.4017,-1.42489 q -0.0114,-0.0379 -0.0303,-0.10232 -0.20085,-0.70866 -0.59876,-0.70866 H 198.419 l -0.4358,2.23587 h -1.11794 l 1.10278,-5.65788 h 1.55374 q 0.87918,0 1.30362,0.33348 0.42443,0.3297 0.42443,1.01562 0,0.70865 -0.37138,1.13688 -0.37138,0.42444 -1.0573,0.50023 z m -0.91329,-2.04639 -0.30317,1.54237 h 0.46612 q 0.5116,0 0.77308,-0.24253 0.26527,-0.24254 0.26527,-0.71245 0,-0.29559 -0.17432,-0.43959 -0.17432,-0.1478 -0.52296,-0.1478 z"
         style="font-style:italic;font-weight:bold;font-family:monospace;-inkscape-font-specification:'monospace, Bold Italic';baseline-shift:baseline;stroke-width:0.09;fill:#e4e4e4;fill-opacity:1"
         id="path704" /><path
         d="m 205.2706,173.75231 q -0.36001,0.15916 -0.75034,0.23875 -0.39033,0.0796 -0.80719,0.0796 -0.93982,0 -1.42868,-0.44718 -0.48886,-0.45096 -0.48886,-1.31499 0,-0.53433 0.16675,-1.03456 0.16674,-0.50023 0.46991,-0.86782 0.31832,-0.38654 0.75792,-0.59118 0.43959,-0.20843 0.9474,-0.20843 0.79203,0 1.26952,0.45476 0.47749,0.45475 0.47749,1.20509 0,0.17053 -0.0265,0.39412 -0.0227,0.22359 -0.0758,0.53812 h -2.87631 q -0.0114,0.0644 -0.0189,0.12127 -0.004,0.0568 -0.008,0.11369 0,0.37517 0.2539,0.56844 0.25391,0.18948 0.75034,0.18948 0.40928,0 0.81856,-0.11748 0.40928,-0.11748 0.76171,-0.34106 z m -0.44338,-2.38366 q 0.0151,-0.0531 0.0189,-0.10232 0.008,-0.0531 0.008,-0.0985 0,-0.32212 -0.19327,-0.50781 -0.19327,-0.18569 -0.53054,-0.18569 -0.37896,0 -0.64802,0.22359 -0.26907,0.22359 -0.42065,0.67076 z"
         style="font-style:italic;font-weight:bold;font-family:monospace;-inkscape-font-specification:'monospace, Bold Italic';baseline-shift:baseline;stroke-width:0.09;fill:#e4e4e4;fill-opacity:1"
         id="path706" /><path
         d="m 208.79493,171.95225 q -0.65181,0 -0.96634,0.19706 -0.31454,0.19706 -0.31454,0.61012 0,0.23875 0.15158,0.39412 0.15538,0.15538 0.39412,0.15538 0.44717,0 0.75034,-0.35244 0.30317,-0.35243 0.41307,-1.00424 z m 1.6068,-0.41307 -0.46612,2.42156 h -1.10278 l 0.0947,-0.4737 q -0.2539,0.2918 -0.5836,0.43959 -0.3259,0.14401 -0.74276,0.14401 -0.57223,0 -0.90951,-0.3297 -0.33348,-0.33348 -0.33348,-0.89813 0,-0.81477 0.58739,-1.24299 0.59118,-0.43202 1.70153,-0.43202 h 0.73139 l 0.0303,-0.18569 q 0.004,-0.0227 0.004,-0.0417 0.004,-0.0227 0.004,-0.0682 0,-0.21601 -0.19327,-0.32969 -0.19327,-0.11369 -0.56086,-0.11369 -0.31075,0 -0.70487,0.1099 -0.39033,0.10611 -0.8375,0.31832 l 0.17811,-0.9474 q 0.42823,-0.14779 0.80719,-0.2198 0.38275,-0.0758 0.7276,-0.0758 0.82234,0 1.24678,0.28801 0.42444,0.28801 0.42444,0.84508 0,0.1478 -0.0265,0.34865 -0.0265,0.20085 -0.0758,0.44338 z"
         style="font-style:italic;font-weight:bold;font-family:monospace;-inkscape-font-specification:'monospace, Bold Italic';baseline-shift:baseline;stroke-width:0.09;fill:#e4e4e4;fill-opacity:1"
         id="path708" /><path
         d="m 214.47555,173.82052 q -0.2918,0.12506 -0.60254,0.18569 -0.30696,0.0644 -0.6215,0.0644 -0.85645,0 -1.34531,-0.46991 -0.48507,-0.46991 -0.48507,-1.28468 0,-1.2013 0.6935,-1.95165 0.69729,-0.75034 1.81901,-0.75034 0.37138,0 0.6935,0.0796 0.32211,0.0758 0.61012,0.23875 l -0.20085,1.01561 q -0.23116,-0.21979 -0.48885,-0.3259 -0.2577,-0.10611 -0.55329,-0.10611 -0.64423,0 -1.04972,0.46991 -0.40169,0.46991 -0.40169,1.22025 0,0.48507 0.23116,0.72382 0.23117,0.23874 0.70108,0.23874 0.26527,0 0.56465,-0.0985 0.30317,-0.0985 0.64802,-0.29559 z"
         style="font-style:italic;font-weight:bold;font-family:monospace;-inkscape-font-specification:'monospace, Bold Italic';baseline-shift:baseline;stroke-width:0.09;fill:#e4e4e4;fill-opacity:1"
         id="path710" /><path
         d="m 219.70142,171.20191 -0.53433,2.75883 h -1.11036 l 0.50402,-2.58451 q 0.0189,-0.0985 0.0265,-0.19706 0.0114,-0.10232 0.0114,-0.20464 0,-0.2198 -0.1099,-0.33348 -0.1099,-0.11748 -0.31833,-0.11748 -0.31454,0 -0.53433,0.27285 -0.2198,0.26906 -0.31833,0.78066 l -0.45854,2.38366 h -1.11036 l 1.14825,-5.89663 h 1.10278 l -0.4396,2.28893 q 0.1819,-0.34865 0.50023,-0.54192 0.31833,-0.19706 0.70108,-0.19706 0.48507,0 0.74655,0.26528 0.26148,0.26148 0.26148,0.74276 0,0.11369 -0.0189,0.25769 -0.0152,0.14401 -0.0493,0.32212 z"
         style="font-style:italic;font-weight:bold;font-family:monospace;-inkscape-font-specification:'monospace, Bold Italic';baseline-shift:baseline;stroke-width:0.09;fill:#e4e4e4;fill-opacity:1"
         id="path712" /><path
         d="m 221.78192,172.56995 h 1.26572 l -0.26527,1.39079 h -1.26573 z"
         style="font-style:italic;font-weight:bold;font-family:monospace;-inkscape-font-specification:'monospace, Bold Italic';baseline-shift:baseline;stroke-width:0.09;fill:#e4e4e4;fill-opacity:1"
         id="path714" /></g></g></svg>
